<?xml version="1.0" standalone="no"?>
<!DOCTYPE svg PUBLIC "-//W3C//DTD SVG 1.1//EN" "http://www.w3.org/Graphics/SVG/1.1/DTD/svg11.dtd" >
<svg xmlns="http://www.w3.org/2000/svg" xmlns:xlink="http://www.w3.org/1999/xlink" version="1.1">
<metadata>
Created by FontForge 20201107 at Fri Jun  7 12:48:55 2024
 By 
Copyright (c) 2023 by ardyanatypes. All rights reserved.
</metadata>
<defs>
<font id="Cagke-Extrabold" horiz-adv-x="989" >
  <font-face 
    font-family="Cagke Extrabold"
    font-weight="800"
    font-stretch="normal"
    units-per-em="2048"
    panose-1="0 0 0 0 0 0 0 0 0 0"
    ascent="1638"
    descent="-410"
    x-height="1024"
    cap-height="1434"
    bbox="25 -440 5646 2048"
    underline-thickness="102"
    underline-position="-255"
    unicode-range="U+0020-2265"
  />
<missing-glyph horiz-adv-x="1228" 
d="M1008 2048v-2458h-779v2458h779zM819 373h-409v-279h409v279zM737 291v-115h-245v115h245zM819 797h-246v-138h82v58h82v-117h-245v197h-82v-277h409v277zM819 1098h-82v-164h-327v-82h409v246zM819 1245h-409v-82h163v-90h-163v-82h245v172h164v82zM573 1483v-88h-81v88
h81zM655 1567h-245v-256h409v84h-164v172zM819 1884h-405v-82h159v-90h-163v-82h409v82h-164v90h164v82zM819 37h-409v-80h172l-172 -117v-80h409v80h-252l172 117h80v80z" />
    <glyph glyph-name="C_a_g_k_e.liga" unicode="Cagke" horiz-adv-x="5703" 
d="M721 -43q-317 0 -490.5 197.5t-173.5 556.5q0 360 173 557.5t489 197.5q219 0 361.5 -120t142.5 -318q0 -129 -74.5 -201.5t-200.5 -72.5q-106 0 -176 76t-70 190q0 97 58 161t147 64q0 70 -54 118t-134 48q-123 0 -206 -145.5t-83 -362.5q0 -269 116 -425t298 -156
q149 0 246.5 104t97.5 260q0 49 41 49q41 -7 41 -49q0 -348 -144 -538.5t-405 -190.5zM1532 -33q-111 0 -174.5 76t-63.5 195q0 79 21.5 137.5t57 92.5t81.5 57t96.5 36.5t101.5 26t96.5 30.5t81 44.5t56.5 73.5t21 112q0 74 -43 126t-109 52q-42 0 -70 -20t-28 -48
q54 0 89.5 -42t35.5 -105q0 -75 -59 -125.5t-148 -50.5q-90 0 -150.5 49.5t-60.5 126.5q0 106 120 176t300 70q242 0 364.5 -108.5t122.5 -313.5q0 -83 -6 -201t-6 -162q0 -42 6 -130.5t6 -141.5h-389l72 539h-17q0 -69 -15 -145t-48.5 -152.5t-79.5 -137.5t-114.5 -99
t-147.5 -38zM1735 279q82 0 125 105.5t43 303.5q-20 -40 -55.5 -72.5t-69.5 -53.5t-65.5 -44.5t-51 -58t-19.5 -82.5q0 -43 26.5 -70.5t66.5 -27.5zM2832 -440q-108 0 -186.5 15.5t-121 40.5t-66.5 60.5t-26.5 71.5t2.5 77t16.5 74t20.5 66t9 49q0 17 12.5 28t32.5 11
q19 0 31 -11t12 -28q0 -59 70.5 -123t169.5 -111.5t206.5 -78.5t182.5 -31q44 0 72 14.5t28 45.5q0 36 -39 60t-101 37.5t-137 24t-150.5 23t-137.5 31t-101.5 53t-39.5 82.5q-1 72 108 108q17 6 47 13q35 9 35 13q1 4 -14 9q-194 23 -298 130t-104 288q0 209 133.5 331
t374.5 122q242 0 375 -122t133 -331q0 -204 -131 -314t-377 -110q-37 0 -74 -24q-35 -24 -4 -35q17 -6 54 -6q11 0 45.5 4t71.5 8t85.5 4t92.5 -5t88 -22t75.5 -44t51.5 -74t20 -109q0 -57 -4 -88.5t-32.5 -81.5t-82.5 -76.5t-163 -47.5t-265 -21zM2873 209q66 0 96.5 94
t30.5 301q0 224 -30 321t-97 97q-65 0 -95 -97.5t-30 -320.5q0 -206 30 -300.5t95 -94.5zM3475 0q0 8 7.5 275t7.5 423q2 237 -12 488q-3 40 41.5 67t100 37.5t102 25t46.5 32.5l-16 -7q-137 -42 -234 -36t-158 30.5t-95.5 42.5t-47 0t-12.5 -96q0 -86 -45 -132t-129 -46
q-86 0 -132 45t-46 127t53 126t152 44q107 0 209 -15t157 -28.5t147.5 -17t180.5 19.5l131 29q-1 -23 -20.5 -196t-39 -392t-20.5 -361h10q3 272 108 422t292 150q132 0 219.5 -90t87.5 -224q0 -105 -79 -189t-212.5 -129.5t-294.5 -45.5q-14 0 -14 -8q0 -9 12 -9
q51 0 199.5 -31.5t206.5 -31.5q68 0 117 30.5t49 82.5q0 16 18 16q23 0 23 -16q0 -74 -7 -133.5t-26.5 -119.5t-52.5 -100.5t-88.5 -66t-129.5 -25.5q-75 0 -130 37t-87 91.5t-57.5 109.5t-55.5 98t-67 51q4 -80 21.5 -195.5t17.5 -158.5h-408zM5202 -33q-272 0 -421.5 143
t-149.5 402q0 260 147.5 402.5t415.5 142.5q177 0 295 -91t118 -227q0 -150 -111.5 -217t-334.5 -69h-123q35 -92 105.5 -143.5t160.5 -51.5q107 0 191 66t84 165q0 15 10.5 25t22.5 10q14 -3 24 -13.5t10 -23.5q0 -249 -116 -384.5t-328 -135.5zM3842 406q129 5 201.5 74.5
t72.5 195.5q0 64 -27.5 100.5t-74.5 36.5q-82 0 -127 -90t-45 -252q-3 -35 0 -65zM5007 629q0 -72 19 -140q119 33 181.5 120.5t62.5 205.5q0 95 -24.5 153t-66.5 58t-82 -55t-65 -147.5t-25 -194.5z" />
    <glyph glyph-name=".notdef" horiz-adv-x="1228" 
d="M1008 2048v-2458h-779v2458h779zM819 373h-409v-279h409v279zM737 291v-115h-245v115h245zM819 797h-246v-138h82v58h82v-117h-245v197h-82v-277h409v277zM819 1098h-82v-164h-327v-82h409v246zM819 1245h-409v-82h163v-90h-163v-82h245v172h164v82zM573 1483v-88h-81v88
h81zM655 1567h-245v-256h409v84h-164v172zM819 1884h-405v-82h159v-90h-163v-82h409v82h-164v90h164v82zM819 37h-409v-80h172l-172 -117v-80h409v80h-252l172 117h80v80z" />
    <glyph glyph-name=".null" horiz-adv-x="0" 
 />
    <glyph glyph-name="nonmarkingreturn" horiz-adv-x="682" 
 />
    <glyph glyph-name="space" unicode=" " horiz-adv-x="409" 
 />
    <glyph glyph-name="space" unicode="&#xa0;" horiz-adv-x="409" 
 />
    <glyph glyph-name="quotedbl" unicode="&#x22;" horiz-adv-x="1036" 
d="M549 928q1 87 -2.5 207.5t-7.5 209.5t-4 93l405 14q0 -7 -19.5 -92t-39 -208.5t-19.5 -223.5h-313zM111 928q1 87 -2.5 207.5t-7 209.5t-3.5 93l404 14q0 -7 -19 -92t-38 -208.5t-19 -223.5h-315z" />
    <glyph glyph-name="numbersign" unicode="#" horiz-adv-x="1396" 
d="M709 0q0 116 61 494h-219q-62 -384 -62 -494h-407q0 116 61 494h-49v69h60q10 63 30.5 181t28.5 169h-57v70h69q74 421 74 451h408q0 -30 -74 -451h219q74 421 74 451h407q0 -36 -73 -451h77v-70h-90q-11 -71 -59 -350h88v-69h-98q-62 -384 -62 -494h-407zM561 563h219
q10 62 31 180t29 170h-219q-8 -50 -18 -109t-22.5 -130t-19.5 -111z" />
    <glyph glyph-name="percent" unicode="%" horiz-adv-x="1546" 
d="M242 0l831 1434h242l-832 -1434h-241zM1128 -31q-151 0 -232 94t-81 267t81 266.5t232 93.5q152 0 234 -93.5t82 -266.5t-82 -267t-234 -94zM1128 -4q43 0 63.5 79.5t20.5 256.5q0 173 -20.5 252.5t-63.5 79.5t-63.5 -79.5t-20.5 -252.5q0 -177 20.5 -256.5t63.5 -79.5z
M418 748q-151 0 -232.5 93.5t-81.5 266.5t81.5 266.5t232.5 93.5q152 0 233.5 -93.5t81.5 -266.5t-81.5 -266.5t-233.5 -93.5zM418 774q43 0 63.5 79.5t20.5 256.5q0 173 -20.5 252.5t-63.5 79.5t-63.5 -79.5t-20.5 -252.5q0 -177 20.5 -256.5t63.5 -79.5z" />
    <glyph glyph-name="ampersand" unicode="&#x26;" horiz-adv-x="1265" 
d="M508 -35q-190 0 -296 103t-106 288q0 65 12 119.5t30.5 93.5t49 70t58 50.5t68.5 33.5t69.5 20.5t71.5 10t64 4t57 0.5h8q12 0 12 10t-12 10h-50t-58 3.5t-64.5 9t-64 17.5t-62.5 28.5t-54 43t-45 59t-29 78t-11 99.5q0 178 118.5 264t395.5 86q243 1 366 -89t123 -267
q0 -83 -62.5 -129.5t-160.5 -46.5q-86 0 -143.5 55.5t-57.5 140.5q0 60 17 108t36.5 77t20.5 33q0 41 -82 41q-78 0 -125 -88.5t-47 -210.5q0 -121 42.5 -207t104.5 -86h422q-17 -149 -14 -416q0 -269 14 -381h-342q9 73 11 131q-83 -166 -285 -166zM543 395q0 -143 34 -222
t93 -77q60 1 93.5 77t33.5 208q3 176 -9 360h-90q-64 0 -109.5 -101.5t-45.5 -244.5z" />
    <glyph glyph-name="quotesingle" unicode="'" horiz-adv-x="600" 
d="M111 928q1 87 -2.5 207.5t-7 209.5t-3.5 93l404 14q0 -7 -19 -92t-38 -208.5t-19 -223.5h-315z" />
    <glyph glyph-name="parenleft" unicode="(" horiz-adv-x="774" 
d="M729 -215q-321 0 -495.5 228.5t-174.5 650.5t174.5 649t495.5 227v-61q-111 0 -184.5 -218t-73.5 -595q0 -380 73.5 -600t184.5 -220v-61z" />
    <glyph glyph-name="parenright" unicode=")" horiz-adv-x="774" 
d="M45 -154q111 0 184.5 220t73.5 600q0 377 -73.5 595t-184.5 218v61q321 0 495.5 -227t174.5 -649t-174.5 -650.5t-495.5 -228.5v61z" />
    <glyph glyph-name="plus" unicode="+" 
d="M293 262q0 69 8 213q-99 -6 -199 -6v348q104 0 199 -6q-8 140 -8 213h405q0 -73 -8 -213q99 6 197 6v-348q-98 0 -197 6q8 -144 8 -213h-405z" />
    <glyph glyph-name="hyphen" unicode="-" horiz-adv-x="952" 
d="M145 432q-17 0 -28 11t-11 28q1 11 3 34t2 33v33q0 13 -5 86q0 17 11 28t28 11q46 -1 157.5 -7.5t170.5 -6.5q61 -1 175 6t157 8q19 0 30 -11t9 -28q-4 -70 -4 -102q0 -26 4 -84q2 -17 -9 -28t-30 -11q-43 1 -156.5 8t-175.5 6q-59 0 -170.5 -6.5t-157.5 -7.5z" />
    <glyph glyph-name="slash" unicode="/" horiz-adv-x="761" 
d="M70 -215q0 128 54 530.5t108.5 780t54.5 444.5h407q0 -68 -54 -445.5t-108.5 -779.5t-54.5 -530h-407z" />
    <glyph glyph-name="zero" unicode="0" horiz-adv-x="1196" 
d="M598 -45q-258 0 -399.5 198t-141.5 558q0 359 141.5 557t399.5 198t399.5 -198t141.5 -557q0 -360 -141.5 -558t-399.5 -198zM598 10q62 0 97.5 186t35.5 517q0 329 -35.5 513.5t-97.5 184.5q-63 0 -99 -184t-36 -514q0 -332 36 -517.5t99 -185.5z" />
    <glyph glyph-name="one" unicode="1" horiz-adv-x="602" 
d="M96 0q0 114 8 360t7 375q0 116 -7.5 347t-7.5 352h408q0 -121 -7.5 -351t-7.5 -350q-1 -128 7 -373.5t8 -359.5h-408z" />
    <glyph glyph-name="two" unicode="2" horiz-adv-x="1333" 
d="M1241 0q-52 0 -131.5 -5t-154 -10.5t-163 -10.5t-166 -4t-156 7t-140 25t-110 48.5t-75 78t-26.5 113.5q0 52 24 99.5t64.5 86t93 75.5t110.5 73.5t116 74t110.5 81.5t93 92.5t64.5 111.5t24 133q0 169 -54 261.5t-151 92.5q-78 0 -143 -53.5t-68 -120.5
q102 0 156.5 -57.5t54.5 -165.5q0 -129 -65.5 -197.5t-188.5 -68.5q-127 0 -195.5 63.5t-68.5 182.5q0 214 161.5 337t414.5 123q274 0 418.5 -118.5t144.5 -313.5q0 -87 -36 -160t-96.5 -124.5t-139.5 -94.5t-165.5 -75t-173.5 -61t-166 -57.5t-139.5 -59t-96.5 -71
t-36 -89.5q0 -64 132 -30q64 17 292 103q278 106 409 123q33 4 62 4q160 3 160 -153v-289z" />
    <glyph glyph-name="three" unicode="3" horiz-adv-x="1202" 
d="M584 -35q-272 0 -393 113t-121 334q0 192 206 192q91 0 153.5 -56t62.5 -153q0 -55 -18 -112.5t-39 -94.5t-40 -70t-20 -44q3 -22 20.5 -36.5t42.5 -14.5q68 0 119 30.5t80.5 84t44 118.5t14.5 141q0 142 -44.5 241t-110.5 99q-39 0 -39 27q0 29 39 29q64 1 107.5 88
t43.5 209q0 123 -48 213t-128 90q-78 0 -84 -47q1 -5 19.5 -33t35.5 -75.5t17 -107.5q0 -84 -57 -140t-142 -56q-99 0 -161 46.5t-62 129.5q0 356 491 356q259 0 389 -90.5t130 -263.5q0 -55 -11.5 -100.5t-29 -78.5t-46 -59t-54.5 -42t-64 -28t-65 -17.5t-66 -8.5t-58 -3.5
t-51 -0.5q-14 0 -14 -10t14 -10h10q47 0 75.5 -1t84.5 -8.5t92.5 -21.5t83 -43t74 -70.5t47 -106.5t19.5 -147q0 -79 -27.5 -144t-77 -110.5t-118.5 -76.5t-151 -45.5t-175 -14.5z" />
    <glyph glyph-name="four" unicode="4" horiz-adv-x="1107" 
d="M608 0q0 178 51 426h-614q0 31 21 106.5t45.5 170.5t45.5 296.5t21 454.5q43 -3 73 -6.5t80.5 -13.5t85.5 -23t76.5 -37t67 -55t43 -77t17.5 -103q0 -145 -112 -326.5t-251 -296.5h420q35 160 53.5 257t37.5 282.5t19 378.5h59.5t35 1.5t27.5 2.5t39.5 5.5t66.5 8.5
q-30 -726 0 -1452h-408z" />
    <glyph glyph-name="five" unicode="5" horiz-adv-x="1177" 
d="M549 -27q-133 0 -226.5 29.5t-148.5 88.5t-79.5 138.5t-24.5 188.5q0 190 196 190q88 0 148.5 -55.5t60.5 -151.5q0 -55 -17.5 -112t-38.5 -94t-39.5 -70t-19.5 -45q3 -22 20.5 -35.5t43.5 -13.5q65 0 113.5 30.5t75.5 84.5t40 119.5t13 144.5q0 325 -365 325
q-73 0 -162 -18l84 729q32 0 75.5 -2t99.5 -4t217.5 -4t400.5 -2q-13 -139 -38 -203q-64 -166 -263 -166q-130 0 -245.5 40t-180.5 105l-47 -387q219 31 331 31q42 0 80 -2.5t92 -13.5t98 -29t91 -51.5t78.5 -79t52 -114.5t20.5 -154q0 -211 -136.5 -324t-399.5 -113z" />
    <glyph glyph-name="six" unicode="6" horiz-adv-x="1140" 
d="M573 -33q-145 0 -263.5 97t-185.5 267.5t-67 379.5q0 364 152.5 559.5t437.5 195.5q161 0 269 -110.5t108 -274.5q0 -59 -37 -91t-125 -32q-77 0 -117 31.5t-40 91.5q0 32 2 72.5t4 70.5t3 63t-1 56t-8.5 42t-19 28.5t-32.5 9.5q-77 0 -149.5 -176t-101.5 -352t-1 -176
q10 0 18.5 21.5t21 51.5t35 60.5t72 52t120.5 21.5q60 0 117.5 -14t112 -46.5t95 -80.5t65.5 -122t25 -165q0 -72 -15 -142t-53 -141.5t-94 -125.5t-146 -88t-202 -34zM575 49q115 0 115 416q0 188 -32 276t-97 88q-64 0 -94.5 -85t-30.5 -269q0 -220 34 -323t105 -103z" />
    <glyph glyph-name="seven" unicode="7" horiz-adv-x="1048" 
d="M256 0q0 145 17.5 272t48 222.5t71 179.5t86.5 144t95 113.5t95.5 91t89.5 74.5t75.5 66t54.5 62t26 67q-39 -15 -119 -57.5t-148 -77.5t-163.5 -63.5t-181.5 -28.5q-47 0 -84 10.5t-61 26t-41.5 42t-26.5 50.5t-15 59t-7.5 60.5t-4 63t-4.5 57.5q277 0 466 2t255.5 4
t118.5 4t88 2v-135v-2q0 -55 -24.5 -119t-60 -126.5t-77.5 -162t-77.5 -214t-59.5 -294.5t-24 -393h-408z" />
    <glyph glyph-name="eight" unicode="8" horiz-adv-x="1249" 
d="M625 -33q-270 0 -419 121.5t-149 341.5q0 187 109 303.5t311 147.5q-159 23 -244.5 96.5t-85.5 189.5q0 142 125.5 220.5t352.5 78.5q228 0 352.5 -78t124.5 -221q0 -117 -85 -190t-245 -96q203 -31 311.5 -147.5t108.5 -303.5q0 -220 -148 -341.5t-419 -121.5zM625 2
q77 0 114 103.5t37 326.5q0 220 -37 322t-114 102q-152 0 -152 -424q0 -430 152 -430zM625 893q64 0 95.5 66t31.5 210q0 275 -127 275q-63 0 -94 -66.5t-31 -208.5q0 -144 30.5 -210t94.5 -66z" />
    <glyph glyph-name="nine" unicode="9" horiz-adv-x="1153" 
d="M508 -33q-161 0 -269 110.5t-108 274.5q0 59 37 91t125 32q77 0 117.5 -31.5t40.5 -91.5t1.5 -102.5t7.5 -91t16.5 -78.5t30 -50t46.5 -20q62 0 110.5 72.5t71.5 176t34 207.5t5.5 176.5t-22.5 72.5q-10 0 -17.5 -21.5t-20 -51.5t-35 -60.5t-72 -52t-120.5 -21.5
q-77 0 -149.5 23.5t-137 71.5t-104 134t-39.5 199q0 71 17 142t57 141.5t98.5 125t150 88t202.5 33.5q144 0 262 -96.5t185 -267t67 -379.5q0 -364 -152 -560t-436 -196zM580 627q65 0 99 92.5t34 265.5q0 201 -37.5 316.5t-97.5 115.5q-59 0 -90 -109.5t-31 -312.5
q0 -172 34.5 -270t88.5 -98z" />
    <glyph glyph-name="less" unicode="&#x3c;" horiz-adv-x="964" 
d="M858 184l-43 -49l-711 381q-40 22 -54.5 57t0 69.5t54.5 55.5l711 381l43 -39q0 -87 -71.5 -187t-179.5 -168.5t-204 -68.5v-16q97 0 204.5 -66t179 -164t71.5 -186z" />
    <glyph glyph-name="equal" unicode="=" horiz-adv-x="999" 
d="M891 692q-60 0 -196 5.5t-208 4.5q-63 0 -189 -5t-192 -5v301q67 0 192.5 -5t190.5 -5q71 -1 206.5 4.5t195.5 5.5v-301zM891 236q-60 0 -196 5.5t-208 4.5q-63 0 -189 -5t-192 -5v301q67 0 192.5 -5.5t190.5 -5.5q71 -1 206 5t196 6v-301z" />
    <glyph glyph-name="greater" unicode="&#x3e;" horiz-adv-x="964" 
d="M106 184q0 88 71.5 186t179 164t204.5 66v16q-96 0 -204 68.5t-179.5 168.5t-71.5 187l44 39l710 -381q40 -21 54.5 -55.5t0 -69.5t-54.5 -57l-710 -381z" />
    <glyph glyph-name="at" unicode="@" horiz-adv-x="1996" 
d="M958 -20q-109 0 -181 30t-115.5 97t-61.5 164.5t-18 242.5q0 250 94 393.5t244 143.5q127 0 198 -71t94 -224h17q0 62 -24.5 155t-24.5 109h192q0 -13 4 -101t8 -208t5 -205q0 -115 -8.5 -301t-8.5 -195q0 -32 7.5 -77.5t23.5 -45.5q33 0 59.5 137.5t37.5 277t11 212.5
q0 418 -131.5 621.5t-378.5 203.5q-248 0 -382 -207.5t-134 -627.5q0 -421 134 -630.5t382 -209.5q60 0 101 4t86 17t80.5 40.5t62.5 71.5l172 -90q-49 -31 -105.5 -50.5t-130.5 -27t-123.5 -9t-142.5 -1.5q-196 0 -369.5 65t-300 179.5t-200.5 281t-74 359.5
q0 192 74 357.5t200.5 279.5t300 178.5t369.5 64.5q193 0 365 -63t298.5 -175.5t200.5 -276.5t74 -355q0 -66 -6 -128t-22 -131t-41.5 -128.5t-67.5 -114.5t-95.5 -93.5t-130 -61.5t-167.5 -23q-48 0 -87 20t-64 54.5t-40.5 70t-25.5 76.5q-8 -4 -26 -19.5t-35.5 -26
t-62.5 -20t-110 -9.5zM1024 55q67 0 108 82t52 232q1 22 2 64.5t2 62.5q-1 179 -41 278.5t-109 99.5t-108 -105t-39 -294q0 -199 35 -309.5t98 -110.5z" />
    <glyph glyph-name="A" unicode="A" horiz-adv-x="1271" 
d="M70 0q0 27 1 72t7 144.5t16 200t31 227t48.5 238t71.5 221.5t98 188t129.5 126.5t164.5 48.5t164.5 -48.5t129 -126.5t97.5 -188t71.5 -221t48 -238.5t30.5 -227t16 -200t7 -144.5t1 -72h-407q0 149 -17 326h-276q-3 -61 -9 -141t-11 -132t-5 -53h-407zM455 385h317
q-30 243 -90 464t-118 339.5t-93 118.5q-12 0 -12.5 -27.5t6 -99.5t15 -165.5t16 -258.5t8.5 -346z" />
    <glyph glyph-name="B" unicode="B" horiz-adv-x="1298" 
d="M852 -35q-31 0 -59.5 1.5t-54 5t-45 6.5t-40.5 9t-33 9.5t-30.5 11.5t-24.5 10.5t-23.5 11t-19.5 9.5v-39h-407q0 15 8 281.5t8 425.5q1 121 -3 289t-8.5 295t-4.5 143h407q0 -25 -21.5 -87t-43 -140.5t-21.5 -143.5h21q1 72 21.5 140.5t60 128.5t107 97t153.5 37
q171 0 270.5 -85.5t99.5 -239.5q0 -189 -113 -277t-347 -86q-15 0 -15 -10t15 -10h8q47 0 76 -1t86.5 -8.5t96.5 -21.5t87.5 -44t78 -71t50 -107t20.5 -149q0 -391 -360 -391zM659 41q60 0 99 96.5t39 241.5q0 143 -40.5 236.5t-103.5 93.5q-64 0 -100 -77t-41 -214
q1 -20 2 -61t2 -62q11 -113 50 -183.5t93 -70.5zM637 823q59 0 98 71.5t39 178.5q0 96 -36.5 160.5t-90.5 64.5q-61 0 -102 -69.5t-41 -171.5q0 -112 34 -173t99 -61z" />
    <glyph glyph-name="C" unicode="C" horiz-adv-x="1327" 
d="M721 -43q-317 0 -490.5 197.5t-173.5 556.5q0 360 173 557.5t489 197.5q219 0 361.5 -120t142.5 -318q0 -129 -74.5 -201.5t-200.5 -72.5q-106 0 -176 76t-70 190q0 97 58 161t147 64q0 70 -54 118t-134 48q-123 0 -206 -145.5t-83 -362.5q0 -269 116 -425t298 -156
q149 0 246.5 104t97.5 260q0 49 41 49q41 -7 41 -49q0 -348 -144 -538.5t-405 -190.5z" />
    <glyph glyph-name="D" unicode="D" horiz-adv-x="1333" 
d="M860 -35q-74 0 -137 13.5t-89.5 25.5t-68 38t-45.5 28q2 -23 2 -70h-407q0 15 7 281.5t7 425.5q1 121 -2.5 289t-7.5 295t-4 143h407q0 -22 -28.5 -152t-28.5 -219h20q8 72 23 129t43 109.5t69 87.5t103 56t141 21q211 0 311.5 -177t100.5 -566q0 -167 -11.5 -285
t-39 -212t-75.5 -149t-119 -83.5t-171 -28.5zM702 37q100 0 133 140t33 491q0 333 -35 464.5t-141 131.5q-94 0 -137 -137t-43 -445q0 -339 45 -492t145 -153z" />
    <glyph glyph-name="E" unicode="E" horiz-adv-x="1204" 
d="M598 -35q-278 0 -403 93t-125 298q0 82 19.5 147t47.5 106t75 70.5t84 43.5t93 21.5t84.5 8.5t75.5 1h8q14 0 14 10t-14 10q-30 0 -51.5 0.5t-58.5 4t-65.5 9.5t-65 18.5t-63.5 29t-54.5 43t-45.5 59.5t-29 79t-11 101q0 117 49 192t164.5 115.5t304.5 40.5
q244 1 367.5 -89t123.5 -267q0 -83 -62 -129.5t-161 -46.5q-86 0 -142.5 55.5t-56.5 140.5q0 60 17.5 108t36.5 76.5t20 33.5q-7 45 -86 45q-80 0 -128 -90t-48 -213q0 -122 44 -209t108 -88q38 0 38 -29q0 -27 -38 -27q-66 0 -112 -100.5t-46 -241.5q0 -75 14.5 -140
t44 -118t81 -83.5t120.5 -30.5q26 0 43 14.5t20 38.5q-1 12 -30.5 59.5t-57.5 118t-28 141.5q0 97 62 153t153 56q207 0 207 -192q0 -447 -537 -447z" />
    <glyph glyph-name="F" unicode="F" horiz-adv-x="1165" 
d="M115 0q28 670 0 1341q0 24 8 40.5t25.5 27.5t44 16.5t64 8t86 2t109.5 -0.5q116 -1 185 -1q40 0 112 2q85 3 146 0.5t100 -20.5t57.5 -61t18.5 -120q0 -69 -41.5 -106t-116.5 -37q-56 0 -100 15t-72 38.5t-51.5 52l-47 57t-51 52t-70 38.5t-97.5 15q-28 0 -28 -10.5
t20 -38.5q8 -14 13 -22t15.5 -26.5t17 -33t16 -38t15.5 -45t12.5 -51t10.5 -59t5.5 -65.5t0.5 -74l-4 -111q-1 -29 17.5 -47t46.5 -18h69q26 0 42 21.5t16 56.5q0 59 43 59q41 0 41 -59v-217q0 -60 -41 -60q-43 0 -43 60q0 35 -16 59.5t-42 24.5h-80q-25 0 -43 -17t-18 -43
q-2 -52 -3 -86t0 -84.5t2.5 -89t5.5 -143t7 -203.5h-407z" />
    <glyph glyph-name="G" unicode="G" horiz-adv-x="1314" 
d="M598 -33q-111 0 -211 57t-172.5 155.5t-115 237t-42.5 294.5q0 360 173 557.5t489 197.5q219 0 361.5 -120t142.5 -318q0 -129 -74.5 -201.5t-200.5 -72.5q-106 0 -176 76t-70 190q0 97 58 161t147 64q0 70 -54 118t-134 48q-135 0 -212 -134.5t-77 -375.5
q0 -140 36.5 -264.5t99 -200.5t134.5 -76q75 0 115.5 86t40.5 222h340q-15 -135 -15 -334t15 -334h-340q17 158 14 403q-17 -235 -79 -335.5t-193 -100.5z" />
    <glyph glyph-name="H" unicode="H" horiz-adv-x="1372" 
d="M115 0q0 18 8.5 306t7.5 433q0 135 -8 405t-8 290h407q0 -55 -7 -324.5t-7 -290.5q0 -28 17.5 -45.5t43.5 -17.5h234q26 0 43.5 17.5t17.5 45.5q0 33 -7 304t-7 311h407q0 -32 -8 -294.5t-8 -398.5q-1 -146 7.5 -434.5t8.5 -306.5h-407q0 31 7 273t7 362q0 28 -17.5 45.5
t-43.5 17.5h-234q-26 0 -43.5 -17.5t-17.5 -45.5q0 -120 7 -362t7 -273h-407z" />
    <glyph glyph-name="I" unicode="I" horiz-adv-x="636" 
d="M115 0q0 114 7.5 359.5t6.5 375.5q0 116 -7 347t-7 352h407q0 -121 -7 -351t-7 -350q-1 -128 6.5 -373.5t7.5 -359.5h-407z" />
    <glyph glyph-name="J" unicode="J" horiz-adv-x="1187" 
d="M481 -33q-209 0 -322.5 99.5t-113.5 281.5q0 96 62 150.5t172 54.5q97 0 149.5 -58.5t52.5 -162.5q0 -86 -45.5 -133t-130.5 -47q0 -69 39 -108.5t109 -39.5q235 0 235 711q1 125 -4 268t-12 274.5t-8 176.5h407q-8 -279 -7.5 -366t5 -276t4.5 -358q3 -83 -9.5 -149
t-37.5 -114.5t-65.5 -84.5t-88.5 -58.5t-112 -36t-130 -19t-149 -5.5z" />
    <glyph glyph-name="K" unicode="K" horiz-adv-x="1372" 
d="M954 -33q-59 0 -106 34t-77 89.5t-54 123.5t-44 140t-40.5 134.5t-49 111t-63.5 66.5q0 -110 7.5 -333t7.5 -333h-408q0 114 7.5 359.5t6.5 375.5q0 116 -7 347t-7 352h408q0 -121 -7.5 -351t-7.5 -350v-8q80 30 144.5 158.5t95.5 277t31 273.5h436q0 -210 -80 -376.5
t-224 -259.5t-325 -93q-16 0 -16 -11q0 -12 14 -12q34 0 70 -18t65.5 -45t67.5 -59t74.5 -59t87 -45t104.5 -18q70 0 123 32t53 85q0 11 6.5 18t16.5 7t17 -7t7 -18q0 -78 -5.5 -144.5t-18 -136t-37.5 -122.5t-60.5 -96t-89.5 -66t-123 -23z" />
    <glyph glyph-name="L" unicode="L" horiz-adv-x="1157" 
d="M637 4q-71 0 -189 -1q-90 -1 -153.5 0t-103 9.5t-58 28t-18.5 55.5q28 669 0 1338h407q-15 -358 -15 -386t15 -386q0 -83 -11 -161.5t-26.5 -134.5t-33 -106t-31.5 -82t-21 -55.5t-1.5 -34t26.5 -10.5q56 0 102.5 23.5t79 61t61.5 83t57.5 91t60.5 83t78 61t102 23.5
q147 0 147 -240q0 -81 -12 -131.5t-38.5 -79t-68.5 -39.5t-101.5 -13t-137.5 1q-75 2 -117 2z" />
    <glyph glyph-name="M" unicode="M" horiz-adv-x="2043" 
d="M1491 0q0 17 26.5 313.5t26.5 431.5q0 182 -42.5 281.5t-117.5 99.5q-97 0 -150 -118t-54 -338q0 -127 12 -389.5t12 -280.5h-407q0 17 15 313.5t15 431.5q0 381 -147 381q-95 0 -146 -117t-53 -335q1 -101 21 -378.5t20 -297.5h-407q0 5 7.5 302t6.5 466q0 148 -7 396
t-7 270h405q-1 -50 -22 -174t-42 -282t-22 -294h19q3 374 116.5 579t309.5 205q130 0 206 -97.5t76 -268.5l-33 -418h21q3 374 117.5 579t310.5 205q350 0 350 -583q0 -93 -6 -252t-6 -230q0 -113 5 -255t5 -146h-434z" />
    <glyph glyph-name="N" unicode="N" horiz-adv-x="1361" 
d="M811 0q0 17 26.5 313.5t26.5 431.5q0 179 -52.5 280t-131.5 101q-95 0 -146 -116.5t-53 -335.5q1 -101 21 -378.5t20 -297.5h-407q0 5 7.5 302t6.5 466q0 148 -7 396t-7 270h405q-1 -50 -22 -174t-42 -282t-22 -294h19q3 373 117 578.5t309 205.5q179 0 273.5 -151
t94.5 -432q0 -92 -7 -251t-7 -231q1 -111 6.5 -250.5t5.5 -150.5h-434z" />
    <glyph glyph-name="O" unicode="O" horiz-adv-x="1417" 
d="M709 -43q-313 0 -482.5 196t-169.5 558q0 364 169 559.5t483 195.5q315 0 483 -195.5t168 -559.5q0 -363 -168.5 -558.5t-482.5 -195.5zM709 10q109 0 167 182t58 521q0 338 -58 519t-167 181t-167.5 -181t-58.5 -519t58.5 -520.5t167.5 -182.5z" />
    <glyph glyph-name="P" unicode="P" horiz-adv-x="1255" 
d="M844 377q-61 0 -118.5 16.5t-91.5 35t-74.5 44t-57.5 33.5q14 -273 20 -506h-407q17 276 14 719q0 497 -14 715h407q0 -30 -14 -94.5t-36 -180.5t-36 -246h23q1 261 108.5 407t290.5 146q170 0 257.5 -112.5t80.5 -321.5q1 -73 -1 -149.5t-3.5 -149.5t-21.5 -137.5
t-54.5 -113t-103.5 -77t-168 -28.5zM631 489q63 0 102 101t39 260q0 149 -39 243.5t-102 94.5t-105.5 -95t-42.5 -237q0 -162 41 -264.5t107 -102.5z" />
    <glyph glyph-name="Q" unicode="Q" horiz-adv-x="1417" 
d="M715 -426q-124 0 -191 50.5t-67 127.5q0 87 103 153q8 5 23 14q36 22 37 29q0 8 -24 15q-260 34 -399.5 227t-139.5 521q0 364 169 559.5t483 195.5q315 0 483 -195.5t168 -559.5q0 -362 -167 -557.5t-480 -196.5q-25 0 -29 -19q-5 -25 40 -42q43 -17 120 -17
q70 0 147.5 26.5t77.5 61.5q0 10 9.5 14t18.5 -0.5t9 -15.5q0 -68 -24.5 -135.5t-70.5 -125.5t-123.5 -94t-172.5 -36zM709 10q109 0 167 182t58 521q0 338 -58 519t-167 181t-167.5 -181t-58.5 -519t58.5 -520.5t167.5 -182.5z" />
    <glyph glyph-name="R" unicode="R" horiz-adv-x="1335" 
d="M936 -33q-72 0 -126 27.5t-84 73t-51.5 104t-31.5 120.5t-22 123.5t-24 111.5t-36.5 85.5t-60.5 44.5q14 -240 22 -657h-407q17 305 14 748q0 456 -14 686h407q0 -28 -22 -97.5t-44 -156.5t-22 -158h21q2 127 46.5 225.5t137 158.5t221.5 60q186 0 281.5 -92.5
t95.5 -267.5q0 -107 -25.5 -184t-66.5 -121.5t-109.5 -70.5t-136.5 -34.5t-166 -9.5q-44 -2 -117 2q-14 0 -14 -10t14 -12q41 -2 79.5 -26.5t72.5 -57.5t72.5 -66t96 -55.5t126.5 -22.5q72 0 113 27t41 80q0 11 6.5 17.5t17.5 6.5t20 -7t9 -17q0 -115 -17.5 -214t-55 -183
t-104.5 -132.5t-157 -48.5zM625 721q67 0 107 87.5t40 217.5q0 121 -35.5 196.5t-93.5 75.5q-63 0 -102 -77.5t-39 -198.5q0 -126 35 -213.5t88 -87.5z" />
    <glyph glyph-name="S" unicode="S" horiz-adv-x="1267" 
d="M627 -33q-235 0 -391 103t-156 258q0 91 52 151t130 60q50 0 90 -29.5t66 -76t47 -103t39 -113.5t36.5 -103.5t45 -76t59.5 -29.5q54 0 90.5 44t36.5 110q0 85 -38 159.5t-99 130.5t-134.5 109.5t-147 107.5t-134.5 112.5t-99 136.5t-38 167q0 169 154 275t389 106
q232 0 385 -99.5t153 -248.5q0 -86 -51 -142t-129 -56q-58 0 -101.5 37.5t-66.5 93.5t-44.5 121.5t-37.5 121.5t-43.5 93.5t-64.5 37.5q-55 0 -91 -43t-36 -108q0 -93 38 -172.5t99 -138t134.5 -112.5l147 -108t134.5 -111.5t99 -136t38 -169.5q0 -159 -159.5 -259
t-401.5 -100z" />
    <glyph glyph-name="T" unicode="T" horiz-adv-x="1372" 
d="M1282 1028q-55 0 -113.5 26t-96 55.5t-98 82t-89.5 74.5q-14 -283 -11 -598q0 -393 17 -668h-408q15 243 15 668q3 278 -9 589q-24 -17 -71 -53t-77 -57t-71.5 -45.5t-82 -36.5t-81.5 -12q0 36 -9 92.5t-17.5 103t-12.5 90.5t8 69.5t42 25.5h1155q30 2 32.5 -64
t-10 -182.5t-12.5 -159.5z" />
    <glyph glyph-name="U" unicode="U" horiz-adv-x="1239" 
d="M621 -33q-212 0 -327.5 51t-164.5 165t-54 296.5t4 446.5q9 317 9 508h408q0 -317 -14 -767q-12 -417 8 -539t131 -122q110 0 129.5 120t6.5 534q-14 453 -14 774h408q0 -192 9 -512q9 -262 4.5 -444t-53.5 -295.5t-164 -164.5t-326 -51z" />
    <glyph glyph-name="V" unicode="V" horiz-adv-x="1271" 
d="M637 -33q-89 0 -164.5 48.5t-129.5 126.5t-98 188t-71.5 221.5t-48.5 238.5t-31 227.5t-16 200t-7 144.5t-1 72h407q-1 -196 24.5 -397t64.5 -356.5t84 -280t85 -191t66 -66.5q12 0 13 42.5t-5.5 127.5t-15.5 185.5t-16.5 246t-8.5 279.5q0 37 3 92t7 108t7.5 100.5
t6.5 78t3 31.5h407q0 -28 -1 -72.5t-7 -144.5t-16 -200t-30.5 -227t-48 -238.5t-71.5 -221.5t-97.5 -188t-129 -126.5t-164.5 -48.5z" />
    <glyph glyph-name="W" unicode="W" horiz-adv-x="1996" 
d="M637 -33q-89 0 -164.5 48.5t-129.5 126.5t-98 188t-71.5 221.5t-48.5 238.5t-31 227.5t-16 200t-7 144.5t-1 72h407q-1 -196 24.5 -397t64.5 -356.5t84 -280t85 -191t66 -66.5q12 0 13 42.5t-5.5 127.5t-15.5 185.5t-16.5 246t-8.5 279.5q0 37 3 92t7 108t7.5 100.5
t6.5 78t3 31.5h407q-1 -196 24.5 -397t64.5 -356.5t84 -280t85 -191t66 -66.5q12 0 13 42.5t-5.5 127.5t-15.5 185.5t-16.5 246t-8.5 279.5q0 37 3 92t6.5 108t7.5 100.5t7 78t3 31.5h407q0 -28 -1 -72.5t-7 -144.5t-16 -200t-30.5 -227t-48 -238.5t-71.5 -221.5t-97.5 -188
t-129 -126.5t-164.5 -48.5q-86 0 -160 45.5t-127 119.5t-97 179t-72 211.5t-50 229.5h-14q1 -104 30.5 -231t58 -216t27.5 -104q-4 -38 -52 -92.5t-124 -98t-145 -43.5z" />
    <glyph glyph-name="X" unicode="X" horiz-adv-x="1478" 
d="M92 0q0 39 11.5 106t42 160.5t74 179t115.5 160t159 105.5q-68 34 -143.5 136t-130.5 216.5t-91.5 219.5t-36.5 151h531q4 -73 18 -162.5t38.5 -185.5t56 -175t74 -129.5t87.5 -50.5q46 0 58.5 32t-1 98.5t-34 145t-39.5 198t-19 229.5h524q0 -41 -11.5 -110t-41.5 -163
t-73.5 -180t-115.5 -160.5t-159 -105.5q68 -34 143.5 -136t130 -216t91 -216.5t36.5 -146.5h-530q-5 93 -26.5 208t-55.5 225.5t-85 185.5t-107 75q-34 0 -49.5 -16.5t-15.5 -50t9.5 -76.5t24.5 -105.5t29.5 -127.5t25 -150.5t10.5 -167.5h-524z" />
    <glyph glyph-name="Y" unicode="Y" horiz-adv-x="1323" 
d="M457 0q0 5 7 93.5t7 133.5q1 40 -4.5 126t-5.5 87q-90 62 -163.5 182t-114 244.5t-68 254.5t-36.5 207t-9 106h460q0 -17 12.5 -111.5t38.5 -235.5t60 -273.5t83.5 -227t102.5 -94.5q23 0 32.5 15t7 47t-11 73.5t-21.5 102.5t-24.5 125.5t-20.5 151t-9 171.5
q-5 98 13 256h460q0 -29 -9 -106.5t-36 -208t-68 -255t-114.5 -245t-165.5 -181.5q0 -4 -5.5 -90t-4.5 -125q0 -43 7 -130.5t7 -92.5h-407z" />
    <glyph glyph-name="Z" unicode="Z" horiz-adv-x="1378" 
d="M227 0q-57 0 -91.5 29.5t-41 70.5t4 84t36.5 72l737 850q19 22 16.5 36.5t-24.5 14.5q-46 0 -131 -21.5t-168 -47t-194 -47t-203 -21.5v414h903q92 0 132 -65t40 -214q0 -109 -22.5 -172t-81 -117.5t-189.5 -136.5l-643 -477q-40 -25 -29.5 -44t56.5 -5l792 239
q62 19 99 1t48 -64t13.5 -110t-4.5 -136q-4 -89 -4 -133h-1051z" />
    <glyph glyph-name="bracketleft" unicode="[" horiz-adv-x="653" 
d="M610 -215h-51h-104.5t-89 2t-80.5 6.5t-64 13t-56 21.5t-40 31.5t-32 44.5t-16 59.5t-7 75.5v1247q0 63 11 107t45.5 72t62.5 43.5t100 22.5t117.5 8t152.5 1h51v-61q-24 0 -37.5 -1.5t-31.5 -7t-27.5 -18t-19 -33.5t-13.5 -54.5t-4 -80.5v-1243q0 -55 7 -92t16.5 -57
t29.5 -30t35.5 -12t44.5 -2v-63z" />
    <glyph glyph-name="backslash" unicode="\" horiz-adv-x="790" 
d="M313 -215q0 128 -54 530t-108.5 779.5t-54.5 445.5h408q0 -67 54 -444.5t108.5 -780t54.5 -530.5h-408z" />
    <glyph glyph-name="bracketright" unicode="]" horiz-adv-x="653" 
d="M43 -152q29 0 44.5 2t35.5 12t29.5 30t16.5 57t7 92v1243q0 47 -4 80.5t-13.5 54.5t-19 33.5t-27.5 18t-31.5 7t-37.5 1.5v61h51q80 0 117 -0.5t97 -3t86.5 -9t66 -18.5t56 -30.5t35.5 -45t25.5 -63t6.5 -84.5v-1247q0 -76 -23 -124.5t-51.5 -75t-104.5 -38.5t-130.5 -14
t-180.5 -2h-51v63z" />
    <glyph glyph-name="asciicircum" unicode="^" horiz-adv-x="1093" 
d="M967 776q-93 0 -189.5 34.5t-160.5 93.5t-64 122h-16q0 -63 -66 -122t-163 -93.5t-189 -34.5l-39 31l377 496q34 43 90 43t90 -43l377 -496z" />
    <glyph glyph-name="underscore" unicode="_" horiz-adv-x="1202" 
d="M150 -328q-44 0 -44 43q9 79 7 107q0 36 -7 90q0 45 44 45q42 -1 197.5 -8.5t236.5 -7.5q82 -1 241.5 7t196.5 9q48 0 41 -45q-5 -89 -4 -109q0 -30 4 -88q6 -43 -41 -43q-30 1 -192 8.5t-246 6.5q-82 0 -240 -7t-194 -8z" />
    <glyph glyph-name="a" unicode="a" horiz-adv-x="1150" 
d="M295 -33q-111 0 -174.5 76t-63.5 195q0 79 21.5 137.5t57 92.5t81.5 57t96.5 36.5t101.5 26t96.5 30.5t81 44.5t56.5 73.5t21 112q0 74 -43 126t-109 52q-42 0 -70 -20t-28 -48q54 0 89.5 -42t35.5 -105q0 -75 -59 -125.5t-148 -50.5q-90 0 -150.5 49.5t-60.5 126.5
q0 106 120 176t300 70q242 0 364.5 -108.5t122.5 -313.5q0 -83 -6 -201t-6 -162q0 -42 6 -130.5t6 -141.5h-389l72 539h-17q0 -69 -15 -145t-48.5 -152.5t-79.5 -137.5t-114.5 -99t-147.5 -38zM498 279q82 0 125 105.5t43 303.5q-20 -40 -55.5 -72.5t-69 -53.5t-65 -44.5
t-51 -58t-19.5 -82.5q0 -43 26 -70.5t66 -27.5z" />
    <glyph glyph-name="b" unicode="b" horiz-adv-x="1243" 
d="M840 -35q-47 0 -89 8.5t-78.5 25t-60 30t-55.5 35t-43 28.5q8 -44 8 -92h-407q0 9 7 275.5t7 422.5q1 121 -2.5 290t-7.5 299t-4 147h407q-1 -23 -20 -196t-38.5 -392t-21.5 -361h13q3 274 109 423t290 149t265 -130.5t79 -424.5q-2 -283 -86.5 -410t-271.5 -127zM625 82
q62 0 101.5 100t39.5 256q0 151 -38.5 246.5t-98.5 95.5q-66 0 -107 -97.5t-41 -250.5q0 -154 40 -252t104 -98z" />
    <glyph glyph-name="c" unicode="c" horiz-adv-x="1130" 
d="M631 -33q-274 0 -424 142.5t-150 402.5t149.5 402.5t422.5 142.5q173 0 289 -96.5t116 -239.5q0 -75 -61 -126.5t-148 -51.5q-90 0 -145 54t-55 138q0 69 47.5 115.5t118.5 46.5q0 49 -41.5 88t-94.5 39q-85 0 -153 -115.5t-68 -279.5q0 -169 82.5 -270t210.5 -101
q109 0 195 67.5t86 168.5q0 15 9.5 25.5t22.5 10.5q14 -3 23.5 -13t9.5 -23q0 -252 -115.5 -389.5t-326.5 -137.5z" />
    <glyph glyph-name="d" unicode="d" horiz-adv-x="1243" 
d="M403 -35q-187 0 -271.5 127t-86.5 410q-2 294 79 424.5t265 130.5t290 -149t109 -423h13q-2 142 -21.5 361t-38.5 392t-20 196h407q0 -17 -4 -147t-7.5 -299t-2.5 -290q0 -156 7 -422.5t7 -275.5h-407q2 31 10 94q-12 -7 -43 -28.5t-55 -35.5t-60 -30.5t-79 -25.5t-91 -9
zM618 82q64 0 104 98t40 252q0 153 -41 250.5t-107 97.5q-60 0 -98.5 -95.5t-38.5 -244.5q0 -158 39.5 -258t101.5 -100z" />
    <glyph glyph-name="e" unicode="e" horiz-adv-x="1130" 
d="M631 -33q-274 0 -424 142.5t-150 402.5q0 259 147.5 402t416.5 143q177 0 295 -91t118 -227q0 -150 -110.5 -217t-333.5 -69h-123q35 -92 105.5 -143.5t158.5 -51.5q109 0 193 66t84 165q0 15 9 25t23 10q14 -3 23.5 -13.5t9.5 -23.5q0 -249 -115.5 -384.5t-326.5 -135.5
zM436 629q0 -72 19 -137q119 33 181 119t62 204q0 95 -25 153t-67 58t-81.5 -55t-64 -147.5t-24.5 -194.5z" />
    <glyph glyph-name="f" unicode="f" horiz-adv-x="860" 
d="M197 0q12 290 15 386.5t0.5 234t-15.5 352.5q-1 26 -16 32.5t-33 0t-42 -15t-36 -7.5q-15 0 -26 9t-11 22q0 39 80 39q19 0 84.5 -20t160.5 -40t185 -20v10q-104 0 -186.5 21t-134 54.5t-85.5 78.5t-47.5 88.5t-13.5 87.5q0 123 110.5 202.5t278.5 79.5q358 0 358 -165
q0 -41 -31.5 -120.5t-85 -149.5t-102.5 -70q-45 0 -45 51q0 29 -27.5 49t-66.5 20q-46 0 -76.5 -21.5t-30.5 -55.5q0 -57 71.5 -83t184.5 -26q25 0 73.5 9.5t72.5 7.5t24 -25q0 -17 -28 -23t-62 -8t-63 -24t-31 -66q-13 -257 -12 -395.5t16 -499.5h-407z" />
    <glyph glyph-name="g" unicode="g" horiz-adv-x="1177" 
d="M588 178q-36 0 -72 -24t-5 -35q17 -6 54 -6q11 0 45.5 4t71.5 8t86 4t93 -5t88 -22t75.5 -44t51.5 -74t20 -109q0 -30 -1 -48t-6 -48t-14.5 -48.5t-28.5 -44t-46.5 -42t-69 -34t-95 -27.5t-127 -16.5t-161.5 -6.5q-108 0 -186 15.5t-120.5 40.5t-66 60.5t-26.5 71.5
t2.5 77t17 74t20.5 66t9 49q0 17 12 28t31 11q20 0 32.5 -11t12.5 -28q0 -59 70 -123t168.5 -111.5t206.5 -78.5t183 -31q43 0 71 15t28 45q0 36 -39 60t-101 37.5t-137 24t-150.5 23t-137.5 31t-101.5 53t-40.5 82.5q-1 72 107 108q17 5 47 13q35 9 35 13t-15 9
q-193 23 -296 131t-103 287q0 208 134 330.5t374 122.5q77 0 131.5 8.5t79.5 18t38 25t14 21.5t1 15q-2 0 -16.5 -9.5t-39 -19.5t-51.5 -10q-83 0 -133.5 45t-50.5 125q0 82 50 127t134 45q44 0 77 -12.5t52.5 -32t31.5 -47t16 -52.5t4 -53q0 -26 -3 -47t-14 -47.5
t-29.5 -47t-52.5 -39.5t-79 -30q169 -36 259.5 -151t90.5 -285q0 -204 -132 -314t-378 -110zM588 209q66 0 96.5 94t30.5 301q0 224 -30 321t-97 97q-65 0 -95 -97.5t-30 -320.5q0 -206 30 -300.5t95 -94.5z" />
    <glyph glyph-name="h" unicode="h" horiz-adv-x="1294" 
d="M772 0q0 59 20.5 253t20.5 282q0 133 -36.5 205.5t-104.5 72.5q-92 0 -141.5 -89t-49.5 -253q-2 -132 19.5 -299.5t21.5 -171.5h-407q0 9 7 275.5t7 422.5q1 121 -2.5 290t-7.5 299t-4 147h407q-1 -23 -20 -196t-38.5 -392t-21.5 -361h11q3 274 109 423t290 149
q164 0 246 -108.5t82 -313.5q0 -61 -6.5 -172.5t-6.5 -159.5q1 -80 7 -183t6 -120h-408z" />
    <glyph glyph-name="i" unicode="i" horiz-adv-x="708" 
d="M152 0q0 3 7.5 214t6.5 316q0 98 -7 294.5t-7 199.5h407q0 -2 -7 -199.5t-7 -296.5q-1 -105 6.5 -315t7.5 -213h-407zM356 1096q-117 0 -179 61.5t-62 177.5t62 178t179 62q114 0 176 -62.5t62 -177.5t-62 -177t-176 -62z" />
    <glyph glyph-name="j" unicode="j" horiz-adv-x="1083" 
d="M498 -412q-172 0 -262.5 59.5t-90.5 166.5q0 61 45 102t113 41q71 0 117.5 -41t46.5 -102t-35 -95t-90 -34q0 -28 24 -45t62 -17q59 0 97 46t38 118q0 36 -18.5 106.5t-18.5 106.5q0 3 8 214t7 316q0 98 -7.5 294.5t-7.5 199.5h408q0 -2 -7 -199.5t-7 -296.5
q-1 -105 6.5 -315t7.5 -213q0 -206 -101 -309t-335 -103zM731 1096q-117 0 -179.5 61.5t-62.5 177.5t62.5 178t179.5 62q114 0 176 -62.5t62 -177.5t-62 -177t-176 -62z" />
    <glyph glyph-name="k" unicode="k" horiz-adv-x="1253" 
d="M881 -33q-53 0 -97 19.5t-73 51t-53 70t-43 78.5t-37 74.5t-41 60.5t-50 33q5 -60 14 -142t15 -137t6 -75h-407q0 18 7.5 306.5t6.5 455.5q0 146 -7 392t-7 280h407q-2 -154 -88 -949h19q3 271 108 421.5t291 150.5q132 0 219.5 -90t87.5 -224q0 -105 -79 -189
t-212.5 -129.5t-294.5 -45.5q-14 0 -14 -8q0 -9 12 -9q51 0 199.5 -31.5t206.5 -31.5q68 0 117 30.5t49 82.5q0 16 18 16q23 0 23 -16q0 -74 -6.5 -133.5t-26.5 -119.5t-52.5 -100.5t-88 -66t-129.5 -25.5zM481 479q0 -11 1 -35t1 -38q130 5 201.5 74.5t71.5 195.5
q0 64 -27.5 100.5t-73.5 36.5q-80 0 -126.5 -89t-47.5 -245z" />
    <glyph glyph-name="l" unicode="l" horiz-adv-x="636" 
d="M115 0q0 114 7.5 359.5t6.5 375.5q0 116 -7 347t-7 352h407q0 -121 -7 -351t-7 -350q-1 -128 6.5 -373.5t7.5 -359.5h-407z" />
    <glyph glyph-name="m" unicode="m" horiz-adv-x="1953" 
d="M1432 0q0 12 20.5 225t20.5 310q0 133 -37 205.5t-105 72.5q-90 0 -139 -87t-51 -247q1 -95 21 -279.5t20 -199.5h-408q0 12 19.5 225t19.5 310q0 133 -36.5 205.5t-104.5 72.5q-91 0 -140 -87t-51 -247q1 -95 21 -279.5t20 -199.5h-407q0 5 7.5 210.5t6.5 307.5
q0 98 -7 295.5t-7 210.5h387l-68 -539h19q3 272 114.5 422t296.5 150q117 0 188.5 -65.5t75.5 -182.5l-34 -324h20q3 274 108.5 423t288.5 149q165 0 246.5 -108t81.5 -314q0 -65 -5 -180t-5 -164q1 -83 5.5 -182t4.5 -109h-407z" />
    <glyph glyph-name="n" unicode="n" horiz-adv-x="1294" 
d="M772 0q0 15 20.5 226.5t20.5 308.5q0 133 -36.5 205.5t-104.5 72.5q-91 0 -140 -87t-51 -247q1 -95 21 -279.5t20 -199.5h-407q0 7 7.5 211.5t6.5 306.5q0 99 -7 298.5t-7 207.5h387l-68 -539h19q3 274 109 423t290 149q164 0 246 -108.5t82 -313.5q0 -61 -6.5 -172.5
t-6.5 -159.5q1 -79 7 -180t6 -123h-408z" />
    <glyph glyph-name="o" unicode="o" horiz-adv-x="1249" 
d="M625 -33q-274 0 -421 141t-147 404t147 404t421 141t420.5 -141t146.5 -404t-146.5 -404t-420.5 -141zM625 6q77 0 114 121t37 387q0 263 -37 383.5t-114 120.5q-79 0 -115.5 -120t-36.5 -384q0 -267 36.5 -387.5t115.5 -120.5z" />
    <glyph glyph-name="p" unicode="p" horiz-adv-x="1245" 
d="M840 -35q-62 0 -120.5 17.5t-92 37.5t-74 47t-57.5 35q26 -496 26 -512h-407q0 8 7.5 302.5t6.5 465.5q0 150 -7 405.5t-7 260.5h387l-68 -539h21q3 274 109 423t290 149q177 0 254.5 -131t77.5 -426q0 -283 -81 -409t-265 -126zM625 82q63 0 102 99.5t39 256.5
q0 151 -38 246.5t-99 95.5q-63 0 -104 -90t-44 -233q0 -25 4 -115q11 -118 48.5 -189t91.5 -71z" />
    <glyph glyph-name="q" unicode="q" horiz-adv-x="1245" 
d="M406 -35q-171 0 -253 126.5t-94 408.5q-10 295 68 426t264 131q184 0 290.5 -149t109.5 -423h20l-68 539h387q0 -18 -7 -259t-7 -382q-1 -175 6.5 -476t7.5 -317h-407q0 19 4 95.5t10.5 200.5t10.5 216q-16 -8 -56 -35.5t-73.5 -47t-92 -37t-120.5 -17.5zM625 82
q52 0 88 69.5t47 186.5q4 94 4 119q-3 143 -42.5 233t-100.5 90q-62 0 -101 -95.5t-39 -246.5q0 -157 40.5 -256.5t103.5 -99.5z" />
    <glyph glyph-name="r" unicode="r" horiz-adv-x="1130" 
d="M115 0q0 11 7.5 225.5t6.5 321.5q0 95 -7 282.5t-7 194.5h387l-74 -539h25q3 277 94.5 424.5t261.5 147.5q126 0 195 -86.5t69 -249.5q0 -109 -59.5 -167t-171.5 -58q-75 0 -116.5 40t-41.5 115q0 125 -74 125q-56 0 -91.5 -83.5t-37.5 -213.5q1 -72 21 -263.5t20 -215.5
h-407z" />
    <glyph glyph-name="s" unicode="s" horiz-adv-x="1099" 
d="M545 -33q-211 0 -343 72t-132 190q0 65 44.5 109.5t112.5 44.5q44 0 78.5 -21t57 -55t41 -75t34 -82.5t31.5 -75.5t39 -55t51 -21q34 0 57 24.5t23 61.5q0 61 -31.5 114t-81.5 93t-110 77t-120.5 75t-110.5 79.5t-81.5 97.5t-31.5 121q0 151 129 233.5t342 82.5
q206 0 336.5 -69t130.5 -183q0 -61 -45.5 -103.5t-112.5 -42.5q-60 0 -101 38t-62.5 91.5t-39.5 107.5t-43.5 92t-62.5 38q-33 0 -56.5 -22t-23.5 -62q0 -68 31.5 -125t81.5 -98.5t110 -79t120.5 -75.5t110.5 -78.5t81.5 -97t31.5 -122.5q0 -129 -138 -214t-347 -85z" />
    <glyph glyph-name="t" unicode="t" horiz-adv-x="735" 
d="M406 -33q-110 0 -174.5 70.5t-83 188t-22 271t8.5 320.5l6 162l-57 -4q-25 -2 -42 8.5t-17 28.5t17 23t50 3h51q2 35 2 109l61 13q61 13 141 43.5t147 78.5q13 10 28 10q9 0 16 -5.5t7 -14.5v-209q66 8 121 20q41 7 41 -22q0 -46 -68 -49l-96 -6q-2 -204 -9.5 -426
t-7.5 -301q0 -50 15.5 -77.5t42.5 -27.5q23 0 34.5 12.5t12 27.5t4 27.5t12.5 12.5q12 0 12 -21q0 -266 -253 -266z" />
    <glyph glyph-name="u" unicode="u" horiz-adv-x="1294" 
d="M522 1024q0 -15 -20.5 -226.5t-20.5 -308.5q0 -133 37 -205.5t105 -72.5q90 0 139 87t51 247q-1 95 -21 279.5t-20 199.5h408q0 -8 -8 -212t-7 -306q0 -99 7.5 -298.5t7.5 -207.5h-387l67 539h-18q-3 -274 -109.5 -423t-290.5 -149q-164 0 -245.5 108.5t-81.5 313.5
q0 61 6 172.5t6 159.5q-1 78 -6.5 179t-5.5 124h407z" />
    <glyph glyph-name="v" unicode="v" horiz-adv-x="1187" 
d="M594 -33q-70 0 -133 34t-110 91t-87.5 133t-68.5 158.5t-50.5 170t-36 164.5t-22.5 144t-12.5 107t-3.5 55h407q0 -17 11 -111.5t34 -235.5t53 -273.5t74.5 -227t91.5 -94.5q20 0 28.5 15t6.5 47t-10 73.5t-19.5 102.5t-22 125.5t-18.5 151t-8 171.5q-3 116 13 256h407
q0 -18 -4.5 -66.5t-15 -129t-30.5 -171t-47 -188.5t-68.5 -187t-91 -160t-119 -113t-148.5 -42z" />
    <glyph glyph-name="w" unicode="w" horiz-adv-x="1830" 
d="M594 -33q-70 0 -133 34t-110 91t-87.5 133t-68.5 158.5t-50.5 170t-36 164.5t-22.5 144t-12.5 107t-3.5 55h405q0 -25 19 -164t50.5 -318.5t85 -319.5t111.5 -140q20 0 28.5 15t6.5 47t-10 73.5t-19.5 102.5t-22 125.5t-18.5 151t-8 171.5q-3 123 15 256h407
q0 -17 11 -111.5t34 -235.5t53 -273.5t74.5 -227t91.5 -94.5q20 0 28.5 15t6.5 47t-10 73.5t-19.5 102.5t-22 125.5t-18.5 151t-8 171.5q-3 116 13 256h407q0 -18 -4.5 -66.5t-15 -129t-30.5 -171t-47 -188.5t-68.5 -187t-91 -160t-119 -113t-148.5 -42q-77 0 -144.5 41
t-116 104.5t-90 154t-68 177t-48.5 185.5h-8q0 -58 31 -168.5t61.5 -197.5t30.5 -89q-2 -31 -22.5 -65.5t-55.5 -67t-91.5 -53.5t-121.5 -21z" />
    <glyph glyph-name="x" unicode="x" horiz-adv-x="1148" 
d="M70 0q0 30 9.5 79t33 116t58 128t91.5 113.5t125 73.5q-53 24 -113 97t-103 154.5t-72 156t-29 106.5h411q4 -67 20.5 -149.5t43 -162.5t67 -134t84.5 -54q36 0 46 22.5t0.5 70t-25.5 103t-30.5 140.5t-14.5 164h407q0 -29 -9.5 -77.5t-33 -115.5t-58 -128.5
t-91.5 -114.5t-125 -74q70 -30 147.5 -140.5t123.5 -218.5t46 -155h-413q-3 66 -19.5 149t-43 162.5t-66.5 133t-84 53.5q-36 0 -46 -22t-0.5 -69.5t25.5 -102.5t30.5 -140t14.5 -164h-407z" />
    <glyph glyph-name="y" unicode="y" horiz-adv-x="1187" 
d="M547 -440q-135 0 -222 25t-121 61.5t-44 88.5t0 94.5t22.5 93t12.5 71.5q0 17 12 28t31 11q20 0 31.5 -10.5t11.5 -28.5q0 -57 77.5 -88t190.5 -31t197.5 29.5t84.5 79.5q0 36 -12 56.5t-33.5 27t-52 7.5t-68 -1.5t-81.5 0.5q-88 3 -163 54.5t-126 129.5t-92.5 177
t-65.5 193.5t-40 182.5t-21.5 141t-5.5 72h407q0 -15 11 -100t34 -212t53 -246.5t74.5 -204.5t91.5 -85q20 0 28.5 14t6.5 42.5t-10 66.5t-19.5 93t-22 113t-18.5 136t-8 154q-3 104 13 229h407q0 -24 -7.5 -89.5t-29.5 -177.5t-55 -220.5t-92 -217t-133 -169.5
q0 -7 21 -19.5t51 -32t60.5 -49t51.5 -82.5t21 -121q0 -43 -9 -79t-38 -76t-77.5 -67.5t-134 -45.5t-200.5 -18z" />
    <glyph glyph-name="z" unicode="z" horiz-adv-x="1198" 
d="M207 0q-65 0 -93.5 34.5t-21.5 76.5t37 71l602 621q15 15 13 26t-19 11q-33 0 -83 -28t-105 -68t-115.5 -79.5t-131.5 -67.5t-136 -28v455h774q72 0 109.5 -47.5t37.5 -136.5q0 -95 -44 -167.5t-128 -113.5l-596 -332q-33 -17 -25 -34t42 -5l628 213q48 17 76 -2t38 -67
t13 -101t8 -121t17 -110h-897z" />
    <glyph glyph-name="braceleft" unicode="{" horiz-adv-x="786" 
d="M51 682q32 0 55 9.5t37.5 37t22.5 50.5t11.5 78.5t4 91t0.5 115.5v32q0 112 28 192.5t92.5 139.5t173.5 87.5t267 28.5v-33q-34 0 -59 -11.5t-41.5 -37.5t-26.5 -57.5t-15.5 -82.5t-7 -101t-1.5 -125q0 -47 -0.5 -75.5t-3.5 -67t-8.5 -62.5t-15.5 -54.5t-25 -49.5
t-37 -40t-50.5 -35t-66 -26t-84.5 -20q47 -8 84.5 -20.5t66 -26.5t50.5 -35.5t37 -41t25 -50t15.5 -54.5t8.5 -62.5t3.5 -67t0.5 -75.5q0 -75 1.5 -125t7 -101t15.5 -82.5t26.5 -57.5t41.5 -37.5t59 -11.5v-33q-158 0 -267 28.5t-173.5 87.5t-92.5 139.5t-28 192.5v32
q0 79 -0.5 115.5t-4 91t-11.5 78.5t-22.5 51t-37.5 36.5t-55 9.5v35z" />
    <glyph glyph-name="braceright" unicode="}" horiz-adv-x="786" 
d="M735 647q-32 0 -55 -9.5t-37.5 -37t-22.5 -50.5t-11.5 -78.5t-4 -91t-0.5 -115.5v-32q0 -112 -28 -192.5t-92.5 -139.5t-173.5 -87.5t-267 -28.5v33q34 0 59 11.5t41.5 37.5t27 57.5t15.5 82.5t7 101.5t2 124.5q0 42 0.5 68t2.5 61.5t6 58t11.5 51.5t18.5 47t26.5 40
t37 36.5t48.5 29t62 24.5t77 17q-83 14 -138.5 42.5t-85.5 60t-45 91t-18 105t-3 131.5q0 74 -2 124.5t-7 101.5t-15.5 82.5t-27 57.5t-41.5 37.5t-59 11.5v33q158 0 267 -28.5t173.5 -87.5t92.5 -139.5t28 -192.5v-32q0 -79 0.5 -115.5t4 -91t11.5 -78.5t22.5 -51
t37.5 -36.5t55 -9.5v-35z" />
    <glyph glyph-name="asciitilde" unicode="~" horiz-adv-x="1142" 
d="M377 483q-37 0 -63.5 -32t-26.5 -93h-197q0 185 70 284t200 99q61 1 113 -17t88 -44t68.5 -53t71.5 -45.5t81 -18.5q76 0 76 121h197q0 -184 -70 -283.5t-201 -99.5q-51 0 -93.5 13.5t-69.5 33.5t-56 44t-52.5 44t-59 33.5t-76.5 13.5z" />
    <glyph glyph-name="brokenbar" unicode="&#xa6;" horiz-adv-x="612" 
d="M123 731q0 54 -1 114t-2.5 133t-2.5 114q0 56 -7.5 169t-7.5 173h408q0 -60 -7 -172t-7 -172q0 -29 -3.5 -158.5t-3.5 -200.5h-366zM102 -215q0 57 8 177t7 183q0 56 3 169t3 173h366q0 -59 3.5 -172t3.5 -172q-1 -62 6.5 -181.5t7.5 -176.5h-408z" />
    <glyph glyph-name="section" unicode="&#xa7;" horiz-adv-x="1099" 
d="M545 496h-17q39 -42 108 -84.5t133.5 -76.5t125.5 -73.5t98 -93t37 -117.5q0 -115 -137.5 -190.5t-347.5 -75.5t-342.5 64.5t-132.5 168.5q0 58 44.5 97t112.5 39q44 0 78.5 -19t57 -49t41 -66.5t34 -73t31.5 -66.5t39 -49t51 -19q34 0 57 22t23 55q0 55 -31.5 102
t-81.5 82.5t-110 68.5t-120.5 67t-110.5 71t-81.5 87t-31.5 108q0 134 129 206.5t342 72.5h20q-40 37 -109 77.5t-131 73.5t-121.5 73t-94.5 92t-35 114q0 136 128.5 208t342.5 72q206 0 336.5 -61.5t130.5 -161.5q0 -54 -45.5 -90.5t-112.5 -36.5q-60 0 -101 33.5t-62.5 81
t-39.5 95t-43.5 81t-62.5 33.5q-33 0 -56.5 -20t-23.5 -58q0 -60 31.5 -110.5t81.5 -87t110 -70t120.5 -67t110.5 -69.5t81.5 -86.5t31.5 -109.5q0 -114 -138 -189t-347 -75zM463 649q0 -13 4 -37q24 -46 44 -68t48 -22q34 0 57 22t23 56q0 6 -1 17t-1 16q-22 47 -42.5 70.5
t-51.5 23.5q-33 0 -56.5 -20t-23.5 -58z" />
    <glyph glyph-name="copyright" unicode="&#xa9;" horiz-adv-x="1632" 
d="M815 -45q-356 0 -552.5 198.5t-196.5 557.5t196.5 557t552.5 198q359 0 555.5 -197.5t196.5 -557.5t-196.5 -558t-555.5 -198zM877 16q217 0 336.5 167t119.5 468t-119.5 466t-336.5 165t-337 -165.5t-120 -465.5q0 -301 120 -468t337 -167zM922 115q-211 0 -326 140
t-115 396q0 255 114.5 395t324.5 140q133 0 222 -94.5t89 -235.5q0 -73 -47 -124.5t-113 -51.5q-68 0 -110.5 53.5t-42.5 136.5q0 68 36 114t90 46q0 47 -32 86t-72 39q-65 0 -117.5 -114t-52.5 -275q0 -167 63 -267t162 -100q83 0 149 67.5t66 166.5q0 15 8 25t19 10
q25 -7 25 -35q0 -248 -89 -383t-251 -135z" />
    <glyph glyph-name="guillemotleft" unicode="&#xab;" horiz-adv-x="1284" 
d="M721 -2l-678 555l678 553q0 -35 -10 -96.5t-34.5 -142t-59 -149.5t-90.5 -117t-121 -48q47 0 90 -25.5t74 -66.5t57 -94t43 -107.5t29 -107t17 -91.5t5 -63zM1214 -2l-677 555l677 553q0 -35 -10 -96.5t-34.5 -142t-59 -149.5t-90.5 -117t-121 -48q47 0 90 -25.5
t74 -66.5t57 -94t43 -107.5t29 -107t17 -91.5t5 -63z" />
    <glyph glyph-name="logicalnot" unicode="&#xac;" horiz-adv-x="985" 
d="M877 467v-197h-261q0 14 21.5 87.5t26.5 115.5q-126 4 -191 4q-63 0 -182 -5t-185 -5v262q67 0 185.5 -5t183.5 -5q71 -1 206.5 4.5t195.5 5.5v-262z" />
    <glyph glyph-name="registered" unicode="&#xae;" horiz-adv-x="1048" 
d="M524 641q-198 0 -305.5 107.5t-107.5 306.5q0 198 107.5 304.5t305.5 106.5q199 0 306.5 -106.5t107.5 -304.5q0 -199 -107 -306.5t-307 -107.5zM518 825q60 0 90.5 1.5t72.5 9.5t61.5 25t40.5 47t28.5 78t7.5 116q0 165 -55 229t-199 64q-127 0 -175.5 -22t-53.5 -81
q-8 -45 -8 -352q0 -48 13 -70.5t53 -33.5t124 -11zM659 860q-40 0 -63.5 21.5t-32.5 53t-14 63t-14.5 56.5t-28.5 29q7 -143 8 -213h-143q6 167 4 244q0 117 -4 223h143q0 -8 -15.5 -55.5t-15.5 -77.5h6q2 63 39 104.5t105 41.5q131 0 131 -119q0 -82 -43.5 -108.5
t-132.5 -28.5q-29 0 -41 2q-6 0 -6 -4q0 -5 6 -5q21 -1 42.5 -19t49.5 -36t66 -18q53 0 53 35q0 8 8 8q10 0 10 -8q0 -80 -28 -134.5t-89 -54.5zM549 1106q24 0 38.5 28.5t14.5 69.5q0 40 -12.5 65t-34.5 25t-35.5 -25.5t-13.5 -64.5q0 -42 12 -70t31 -28z" />
    <glyph glyph-name="degree" unicode="&#xb0;" horiz-adv-x="860" 
d="M430 725q-152 0 -260.5 108.5t-108.5 260.5t108.5 260t260.5 108t260.5 -108t108.5 -260t-108.5 -260.5t-260.5 -108.5zM430 1001q37 0 64.5 28t27.5 65t-27.5 64.5t-64.5 27.5t-64.5 -27.5t-27.5 -64.5t27.5 -65t64.5 -28z" />
    <glyph glyph-name="plusminus" unicode="&#xb1;" 
d="M887 -10q-60 0 -196 5.5t-208 4.5q-63 0 -189 -5t-192 -5v262q67 0 192.5 -5t190.5 -5q71 -1 206.5 4.5t195.5 5.5v-262zM293 365q0 2 6 161q-94 -6 -197 -6v348q102 0 197 -6q-6 80 -6 162h405q0 -3 -6 -162q99 6 195 6v-348q-96 0 -195 6q6 -159 6 -161h-405z" />
    <glyph glyph-name="paragraph" unicode="&#xb6;" horiz-adv-x="1394" 
d="M420 705q-153 0 -260 106t-107 258q0 151 107.5 258t259.5 107q150 0 256 -107t106 -258q0 -152 -105.5 -258t-256.5 -106z" />
    <glyph glyph-name="guillemotright" unicode="&#xbb;" horiz-adv-x="1282" 
d="M70 -2q0 24 5 63t17 91.5t29 107t43 107.5t57 94t74 66.5t90 25.5q-65 0 -121 48t-90.5 117t-59 149.5t-34.5 142t-10 96.5l678 -553zM563 -2q0 35 10 97t35 142.5t59.5 150t90.5 117.5t121 48q-65 0 -121 48t-90.5 117t-59.5 149t-35 142t-10 97l678 -553z" />
    <glyph glyph-name="multiply" unicode="&#xd7;" horiz-adv-x="1038" 
d="M109 510q73 76 155 143q-86 79 -145 138l246 247q22 -21 45 -45t50 -53.5t42 -44.5q18 19 67 72t78 82l285 -285q-34 -35 -156 -143q141 -135 142 -136l-246 -247q-61 61 -133 143q-19 -20 -68.5 -74t-77.5 -82z" />
    <glyph glyph-name="divide" unicode="&#xf7;" horiz-adv-x="999" 
d="M106 811q67 0 194 -6t192 -6q70 -1 204 5.5t195 6.5v-350q-60 0 -195 5.5t-207 4.5q-63 0 -190 -5t-193 -5v350z" />
    <glyph glyph-name="endash" unicode="&#x2013;" horiz-adv-x="1202" 
d="M150 432q-44 0 -44 41q9 71 7 98q0 39 -7 86q0 41 44 41q32 -1 200 -7.5t248 -6.5q83 -1 257 6t198 8q48 0 41 -41q0 -8 -2.5 -50.5t0.5 -51.5q0 -16 1 -42.5t1 -39.5q7 -41 -41 -41q-24 1 -197 8t-258 6q-80 0 -248 -6.5t-200 -7.5z" />
    <glyph glyph-name="emdash" unicode="&#x2014;" horiz-adv-x="1667" 
d="M160 440q-14 0 6 15q3 3 11 9q13 9 20 15q10 10 47 45t51 54q0 29 -8 79q-2 19 8 28t41 9q491 -16 584 -16q83 -2 182.5 0t222.5 6.5t182 5.5q16 0 -5 -15q-4 -3 -15 -10q-14 -9 -21 -14q-12 -15 -46 -48.5t-46 -49.5q0 -30 4 -80q5 -19 -5 -28.5t-44 -8.5
q-51 1 -264.5 9.5t-323.5 7.5q-83 1 -182.5 -1.5t-219 -6.5t-179.5 -5z" />
    <glyph glyph-name="dagger" unicode="&#x2020;" horiz-adv-x="972" 
d="M283 489q0 76 6.5 219.5t7.5 206.5q-189 -6 -193 -6v348q94 0 183 -6q-4 118 -4 183h407q0 -65 -4 -183q20 1 57 2.5t67.5 2.5t57.5 1v-348q-28 0 -59.5 1t-70.5 2.5t-62 2.5q1 -62 7.5 -205.5t6.5 -220.5h-407z" />
    <glyph glyph-name="daggerdbl" unicode="&#x2021;" horiz-adv-x="972" 
d="M283 469q0 25 1 75t1 74q-85 -6 -181 -6v351q40 0 111.5 -3.5t81.5 -3.5v60v35q-14 0 -84 -3.5t-109 -3.5v351q96 0 181 -6q0 25 -1 73t-1 72h407q0 -25 -1 -73.5t-1 -71.5q177 6 180 6v-351q-36 0 -104.5 3t-87.5 4v-37v-58q15 0 85 3.5t107 3.5v-351q-3 0 -180 6
q0 -24 1 -74t1 -75h-407z" />
    <glyph glyph-name="perthousand" unicode="&#x2030;" horiz-adv-x="2236" 
d="M242 0l833 1434h242l-834 -1434h-241zM1139 -31q-151 0 -232.5 94t-81.5 267t81.5 266.5t232.5 93.5q152 0 232.5 -93t80.5 -267t-80.5 -267.5t-232.5 -93.5zM1139 -4q43 0 63.5 79.5t20.5 256.5q0 173 -20.5 252.5t-63.5 79.5t-63.5 -79.5t-20.5 -252.5
q0 -177 20.5 -256.5t63.5 -79.5zM416 748q-151 0 -232.5 93.5t-81.5 266.5t81.5 266.5t232.5 93.5q152 0 232.5 -93t80.5 -267t-80.5 -267t-232.5 -93zM416 774q43 0 63.5 79.5t20.5 256.5q0 173 -20.5 252.5t-63.5 79.5t-63.5 -79.5t-20.5 -252.5q0 -177 20.5 -256.5
t63.5 -79.5zM1823 -31q-152 0 -233 93.5t-81 267.5t81 267t233 93q151 0 232 -93.5t81 -266.5t-81 -267t-232 -94zM1823 -4q43 0 63.5 79.5t20.5 256.5q0 173 -20.5 252.5t-63.5 79.5t-63.5 -79.5t-20.5 -252.5q0 -177 20.5 -256.5t63.5 -79.5z" />
    <glyph glyph-name="guilsinglleft" unicode="&#x2039;" horiz-adv-x="790" 
d="M721 -2l-678 555l678 553q0 -35 -10 -96.5t-34.5 -142t-59 -149.5t-90.5 -117t-121 -48q47 0 90 -25.5t74 -66.5t57 -94t43 -107.5t29 -107t17 -91.5t5 -63z" />
    <glyph glyph-name="guilsinglright" unicode="&#x203a;" horiz-adv-x="790" 
d="M61 -2q0 35 10 97t35 142.5t59.5 150t90.5 117.5t121 48q-65 0 -121 48t-90.5 117t-59.5 149t-35 142t-10 97l678 -553z" />
    <glyph glyph-name="trademark" unicode="&#x2122;" horiz-adv-x="878" 
d="M346 1362q-17 0 -32 8.5t-33.5 25t-26.5 21.5q-4 -79 -2 -139q0 -119 4 -156h-96q4 74 4 156q0 27 -1 73.5t-1 63.5q-6 -4 -20.5 -15t-22.5 -16.5t-21.5 -10.5t-25.5 -5q0 11 -5 35.5t-4.5 38.5t11.5 14h270q7 1 7.5 -14t-2.5 -42.5t-3 -37.5zM715 1122q0 3 6 73t6 101
q0 88 -37 88q-49 0 -49 -106q0 -30 3 -91t3 -65h-94q0 3 3 73t3 101q0 88 -35 88q-45 0 -45 -104q0 -25 5 -90t5 -68h-96q0 3 2 71t2 107q0 34 -2 92.5t-2 63.5h94q0 -12 -9.5 -73t-10.5 -101h6q1 87 27 134.5t71 47.5q31 0 48.5 -23t17.5 -63l-6 -96h4q1 87 28 134.5
t72 47.5q82 0 82 -135q0 -23 -2 -59t-2 -53q0 -27 1 -60.5t1 -34.5h-100z" />
    <glyph glyph-name="partialdiff" unicode="&#x2202;" horiz-adv-x="1140" 
d="M567 -33q-112 0 -202 34t-146 88t-94 125.5t-53 141.5t-15 142q0 91 25 165t66 122t95.5 80.5t112 46.5t117.5 14q71 0 120.5 -21.5t71.5 -52t35 -60.5t21 -51.5t18 -21.5q28 0 -1 176t-101.5 352t-149.5 176q-20 0 -32.5 -9.5t-18.5 -28.5t-8.5 -42t-1 -55.5t3.5 -63
t4 -71t2 -72.5q0 -60 -40 -91.5t-117 -31.5q-88 0 -125 32t-37 91q0 164 108 274.5t269 110.5q285 0 437 -195.5t152 -559.5q0 -209 -67 -379.5t-185.5 -267.5t-263.5 -97zM565 49q71 0 105.5 103t34.5 323q0 184 -30.5 269t-94.5 85q-65 0 -97 -88t-32 -276
q0 -416 114 -416z" />
    <glyph glyph-name="product" unicode="&#x220f;" horiz-adv-x="1411" 
d="M766 -215q0 131 7.5 414t6.5 432q0 151 -8 463q-92 0 -133 2q-8 -312 -8 -467q-1 -148 6.5 -430.5t7.5 -413.5h-407q0 131 7.5 414t6.5 432q0 152 -8 456q-110 -4 -164 -4v351h1251v-351q-90 0 -164 2q-8 -304 -8 -456q-1 -148 7 -430t8 -414h-408z" />
    <glyph glyph-name="summation" unicode="&#x2211;" horiz-adv-x="1107" 
d="M102 162l224 448l-224 455v369h904v-377h-478l205 -447l-207 -448h480v-377h-904v377z" />
    <glyph glyph-name="minus" unicode="&#x2212;" 
d="M102 817q67 0 192.5 -5t190.5 -5q71 -1 206.5 4.5t195.5 5.5v-348q-60 0 -196 5.5t-208 4.5q-63 0 -189 -5t-192 -5v348z" />
    <glyph glyph-name="radical" unicode="&#x221a;" horiz-adv-x="1155" 
d="M264 -215l-203 944h328l-65 -553l22 -4l270 1262h478v-351h-146l-276 -1298h-408z" />
    <glyph glyph-name="infinity" unicode="&#x221e;" horiz-adv-x="1329" 
d="M1262 659q0 -152 -79 -233.5t-225 -81.5q-121 0 -195 55t-97 160q-23 -105 -98 -160t-195 -55q-146 0 -224.5 81.5t-78.5 233.5t78.5 234t224.5 82q120 0 195 -55t98 -160q23 105 97 160t195 55q146 0 225 -82t79 -234zM1239 659q0 84 -283 84q-280 0 -280 -84
q0 -44 66 -64t214 -20q149 0 216 20t67 64zM653 659q0 84 -282 84q-281 0 -281 -84q0 -44 66.5 -64t214.5 -20q149 0 215.5 20t66.5 64z" />
    <glyph glyph-name="integral" unicode="&#x222b;" horiz-adv-x="1036" 
d="M70 -215v352h145l277 1297h477v-353h-146l-276 -1296h-477z" />
    <glyph glyph-name="approxequal" unicode="&#x2248;" horiz-adv-x="1179" 
d="M395 735q-37 0 -63.5 -32t-26.5 -93h-199q0 184 71 282.5t202 98.5q61 2 113 -16t88 -44.5t68.5 -53t71.5 -45.5t81 -19q36 0 56 31.5t20 91.5h194q0 -185 -69.5 -285t-198.5 -100q-60 0 -108 19t-80 46t-62 54t-70 46t-88 19zM395 309q-37 0 -63.5 -31.5t-26.5 -93.5
h-199q0 184 71 283.5t202 101.5q61 1 113 -17t88 -44.5t68.5 -53.5t71.5 -46t81 -19q36 0 56 31t20 90h194q0 -184 -69.5 -283.5t-198.5 -99.5q-51 0 -93.5 13.5t-69.5 33.5t-56 44t-53 44t-59.5 33.5t-76.5 13.5z" />
    <glyph glyph-name="notequal" unicode="&#x2260;" 
d="M887 692q-49 0 -140.5 3.5t-121.5 4.5q-44 -141 -54 -176q43 1 151 6t165 5v-299q-60 0 -195 5.5t-207 4.5q-51 -171 -51 -197h-209q0 19 49 191q-110 -4 -172 -4v299q67 0 260 -9q9 34 30 100.5t24 75.5q-255 -10 -314 -10v299q67 0 192.5 -5t190.5 -5h15q59 197 59 219
h209q0 -29 -57 -213q118 4 176 4v-299z" />
    <glyph glyph-name="lessequal" unicode="&#x2264;" 
d="M885 340l-41 -39l-682 301q-60 26 -60 74t60 74l682 301l41 -31q0 -52 -29 -111t-76 -109t-113.5 -83t-134.5 -33v-14q68 0 134.5 -32t113.5 -80.5t76 -106.5t29 -111zM102 252q60 0 195.5 -5.5t206.5 -4.5q65 0 190.5 5t192.5 5v-262q-66 0 -192 5t-189 5
q-72 1 -208 -4.5t-196 -5.5v262z" />
    <glyph glyph-name="greaterequal" unicode="&#x2265;" 
d="M104 340q0 53 29 111t76 106.5t113.5 80.5t134.5 32v14q-68 0 -134.5 33t-113.5 83t-76 109t-29 111l41 31l682 -301q60 -26 60 -74t-60 -74l-682 -301zM887 -10q-60 0 -196 5.5t-208 4.5q-63 0 -189 -5t-192 -5v262q67 0 192.5 -5t190.5 -5q71 -1 206.5 4.5t195.5 5.5
v-262z" />
    </font>
</defs>
</svg>
